<svg width="1000" height="1000" viewBox="0 0 1000 1000" fill="none" xmlns="http://www.w3.org/2000/svg">
<path d="M347.917 125C397.083 117.917 449.167 171.667 464.167 245.833C479.167 319.583 452.083 385.417 402.917 392.917C354.167 400.417 301.667 346.667 286.25 272.5C270.833 198.75 298.75 132.917 347.917 125ZM645.833 125C695.417 132.917 722.917 198.75 708.333 272.5C692.5 346.667 640.417 400.417 591.25 392.917C541.667 385.417 514.583 319.583 530 245.833C545 171.667 597.083 117.917 645.833 125ZM125 316.667C172.5 296.25 237.083 333.333 270.833 397.917C302.5 463.75 291.667 532.917 244.583 553.333C197.5 573.75 133.333 537.083 100.417 471.667C67.4999 406.25 79.1666 336.667 125 316.667ZM875 316.667C920.833 336.667 932.5 406.25 899.583 471.667C866.667 537.083 802.5 573.75 755.417 553.333C708.333 532.917 697.5 463.75 729.167 397.917C762.917 333.333 827.5 296.25 875 316.667ZM805.417 765.833C807.083 805 777.083 848.333 741.25 864.583C666.667 898.75 578.333 827.917 495.417 827.917C412.5 827.917 323.333 901.667 250 864.583C208.333 844.167 179.583 790 185 745C192.5 682.917 267.083 649.583 311.25 604.167C370 545.417 411.667 435 495.417 435C578.75 435 622.917 543.75 679.167 604.167C725.417 655 802.5 697.917 805.417 765.833Z" fill="black"/>
</svg>
